<?xml version="1.0" encoding="utf-8"?>
<!-- Generator: Adobe Illustrator 17.1.0, SVG Export Plug-In . SVG Version: 6.00 Build 0)  -->
<!DOCTYPE svg PUBLIC "-//W3C//DTD SVG 1.1//EN" "http://www.w3.org/Graphics/SVG/1.1/DTD/svg11.dtd">
<svg version="1.1" id="Layer_1" xmlns="http://www.w3.org/2000/svg" xmlns:xlink="http://www.w3.org/1999/xlink" x="0px" y="0px"
	 width="512px" height="512px" viewBox="0 0 512 512" enable-background="new 0 0 512 512" xml:space="preserve">
<path d="M497.241,250.236l-116.5-67.261c-3.094-1.787-6.906-1.787-10,0c-3.094,1.786-5,5.088-5,8.66v57.28h-194.1l-70.753-40.85
	c-4.783-2.76-10.898-1.123-13.66,3.66c-2.762,4.783-1.122,10.898,3.66,13.66l40.754,23.529h-21.487l-70.753-40.85
	c-4.783-2.76-10.899-1.123-13.66,3.66c-2.762,4.783-1.122,10.898,3.66,13.66l40.754,23.529H25.242c-5.523,0-10,4.478-10,10
	c0,5.523,4.477,10,10,10H70.09l-40.689,23.491c-4.783,2.761-6.422,8.877-3.66,13.66c1.852,3.208,5.213,5.002,8.669,5.002
	c1.696,0,3.416-0.433,4.991-1.342l70.689-40.812h21.487l-40.689,23.491c-4.783,2.761-6.422,8.877-3.66,13.66
	c1.852,3.208,5.213,5.002,8.67,5.002c1.696,0,3.416-0.433,4.991-1.342l70.689-40.812h194.164v57.242c0,3.572,1.906,6.874,5,8.66
	c1.547,0.894,3.273,1.34,5,1.34c1.727,0,3.453-0.446,5-1.34l116.5-67.262c3.094-1.786,5-5.088,5-8.66
	C502.241,255.324,500.335,252.023,497.241,250.236z M385.741,308.838v-99.882l86.5,49.94L385.741,308.838z"/>
</svg>
