<?xml version="1.0" encoding="iso-8859-1"?>
<!-- Generator: Adobe Illustrator 17.0.2, SVG Export Plug-In . SVG Version: 6.00 Build 0)  -->
<!DOCTYPE svg PUBLIC "-//W3C//DTD SVG 1.1//EN" "http://www.w3.org/Graphics/SVG/1.1/DTD/svg11.dtd">
<svg version="1.1" id="Capa_1" xmlns="http://www.w3.org/2000/svg" xmlns:xlink="http://www.w3.org/1999/xlink" x="0px" y="0px"
	 width="64px" height="64px" viewBox="0 0 64 64" style="enable-background:new 0 0 64 64;" xml:space="preserve">
<g>
	<path style="fill:#010202;" d="M31.015,43.576c2.869,0.278,5.118,1.46,5.118,4.593c0,1.269-0.646,4.519,1.152,5.089
		c3.042,0.965,7.41-4.553,9.314-6.161c4.573-3.86,9.146-7.719,13.718-11.579c2.886-2.437-0.487-4.333-2.393-5.941
		c-5.024-4.24-10.048-8.48-15.072-12.721c-1.755-1.481-5.333-5.001-6.634-1.2c-0.051,0.07-0.086,0.146-0.086,0.233
		c-0.024,0.081-0.021,0.149,0.002,0.205c0.013,2.122,0.208,4.289-0.498,6.335c-0.73,2.118-3.089,0.945-4.487,1.32
		c-1.791,0.48-2.069,1.505-2.069,3.17c0,3.239,0,6.478,0,9.717c0,2.059-0.361,4.286,0.435,6.208
		C29.711,43.318,30.598,43.536,31.015,43.576z M30.778,41.184c0.164,0.233,0.357,0.44,0.578,0.563
		c0.262,0.148,0.525,0.296,0.787,0.443c0.1,0.056,0.21,0.107,0.321,0.158C31.538,42.17,31.034,41.878,30.778,41.184z M38.934,52.165
		c-0.293,0.247-0.52,0.207-0.698-0.008c0.083,0.023,0.164,0.058,0.248,0.064c0.261,0.019,0.101-0.231-0.353-0.472
		c-0.048-0.025-0.086-0.035-0.13-0.055c-0.272-0.788-0.357-2.14-0.386-3.186c0.156,0.194,0.337,0.377,0.544,0.507
		c0.6,0.377,1.198,0.755,1.794,1.138c0.328,0.211,0.708,0.301,1.028,0.283C40.299,51.013,39.617,51.589,38.934,52.165z
		 M42.381,49.255c-0.264,0.223-0.528,0.445-0.792,0.668c-0.016-0.238-0.182-0.508-0.507-0.722c-0.969-0.636-1.944-1.262-2.927-1.88
		c-0.224-0.141-0.421-0.262-0.583-0.36c-0.088-0.763-0.246-1.544-0.533-2.237c0.258,0.284,0.539,0.544,0.807,0.696
		c1.545,0.879,3.091,1.758,4.636,2.637c0.332,0.188,0.767,0.216,1.167,0.128C43.227,48.542,42.804,48.898,42.381,49.255z
		 M55.919,37.883c-0.004-0.183-0.109-0.359-0.327-0.479c-0.245-0.135-0.489-0.27-0.732-0.406c-4.919-3.237-9.851-6.456-14.767-9.697
		c-0.517-0.341-0.473-0.421,0.091-0.167c0.758,0.341,1.509,0.698,2.251,1.071c4.591,2.7,9.13,5.479,13.51,8.508
		c0.37,0.256,0.815,0.366,1.146,0.312C56.693,37.32,56.294,37.606,55.919,37.883z M49.033,24.263
		c0.258,0.091,0.517,0.183,0.775,0.274c0.042,0.015,0.061,0.014,0.098,0.025c0.438,0.37,0.876,0.74,1.315,1.11
		c-0.215-0.115-0.43-0.229-0.645-0.346c-0.541-0.297-1.08-0.593-1.621-0.891C48.414,24.136,48.45,24.058,49.033,24.263z
		 M37.595,15.761c0.082-0.284,0.349-0.335,0.721-0.247c0.154,0.089,0.336,0.19,0.552,0.3c0.439,0.223,0.879,0.445,1.319,0.667
		c0.554,0.372,1.152,0.814,1.764,1.295c-1.113-0.592-2.233-1.172-3.36-1.739c-0.362-0.182-0.739-0.254-0.996-0.217
		C37.595,15.8,37.595,15.781,37.595,15.761z M37.587,17.236c0.173,0.132,0.385,0.269,0.626,0.389
		c1.776,0.89,3.538,1.807,5.285,2.752c0.545,0.296,0.512,0.366-0.066,0.145c-1.448-0.549-2.879-1.136-4.305-1.73
		c-0.571-0.239-1.231-0.552-1.475-0.702c-0.029-0.018-0.055-0.01-0.083-0.015C37.577,17.804,37.583,17.523,37.587,17.236z
		 M37.484,19.559c0.181,0.278,0.433,0.527,0.716,0.677c0.647,0.343,1.292,0.688,1.936,1.036c6.086,3.626,12.233,7.146,18.422,10.595
		c0.03,0.025,0.06,0.051,0.091,0.077c2.067,1.744,0.706,3.312-1.043,4.687c0.088-0.192,0.066-0.389-0.098-0.507
		c-0.147-0.106-0.293-0.212-0.44-0.317c-4.796-3.511-9.71-6.872-14.99-9.505c-1.509-0.885-3.023-1.764-4.539-2.64
		c-0.537-0.31-1.197-0.095-1.656,0.321c-0.402,0.366-0.874,0.579-1.382,0.579h-1.048C36.354,24.059,37.225,22.31,37.484,19.559z
		 M30.869,25.391c0.098,0.23,0.318,0.463,0.599,0.607c4.838,2.459,9.655,4.958,14.401,7.573c1.487,0.829,2.967,1.657,4.408,2.509
		c1.26,0.744,2.527,1.473,3.799,2.193c0.164,0.099,0.331,0.196,0.496,0.294c0.104,0.062,0.247,0.074,0.397,0.062
		c-0.64,0.54-1.279,1.08-1.919,1.62c0.029-0.278-0.092-0.556-0.401-0.745c-7.091-4.347-14.211-8.648-21.311-12.956
		c-0.296-0.179-0.55-0.211-0.727-0.137C30.681,26.008,30.767,25.664,30.869,25.391z M50.957,40.203
		c-2.853-1.634-5.688-3.293-8.487-5.002c-3.189-1.948-6.315-4.003-9.483-5.977c-0.525-0.327-0.525-0.328,0.003-0.005
		c5.992,3.657,11.996,7.294,17.984,10.956C51.503,40.498,51.494,40.512,50.957,40.203z M30.47,27.488
		c0.04,0.135,0.088,0.241,0.143,0.275c0.129,0.079,0.13,0.081,0,0.005c-0.079-0.047-0.146,0.062-0.189,0.249
		C30.438,27.836,30.453,27.66,30.47,27.488z M30.391,28.522c0.035,0.451,0.441,1.034,0.948,1.34
		c4.697,2.832,9.247,5.939,13.954,8.733c1.655,0.981,3.317,1.952,4.987,2.913c0.315,0.181,0.724,0.216,1.107,0.144
		c-0.66,0.557-1.32,1.114-1.98,1.671c-0.017-0.236-0.177-0.484-0.496-0.667c-1.448-0.83-2.893-1.66-4.343-2.487
		c-4.524-2.827-8.957-5.803-13.283-8.923c-0.502-0.361-0.907-0.278-0.907,0.188c0,0.467,0.167,0.966,0.375,1.113
		c0.207,0.146,0.207,0.181,0,0.075c-0.207-0.105-0.375,0.193-0.375,0.667c0,0.473,0.448,1.082,1,1.363
		c4.472,2.29,8.863,4.743,13.236,7.24c0.996,0.622,1.997,1.236,3.002,1.843c0.318,0.191,0.698,0.258,1.035,0.227
		c-1.188,1.003-2.377,2.006-3.565,3.01c0.044-0.286-0.079-0.572-0.408-0.759c-4.449-2.527-8.95-4.974-13.337-7.578
		c-0.347-0.206-0.637-0.154-0.806,0.065C30.48,37.12,30.185,32.099,30.391,28.522z"/>
	<path style="fill:#010202;" d="M19.659,41.126c0,3.507,7.35,3.425,8.172,0.386c0.006-0.022-0.007-0.035-0.009-0.054
		c0.002-0.012,0.013-0.023,0.013-0.036c0-5.086,0-10.171,0-15.257c0-3.507-7.349-3.425-8.172-0.386
		c-0.457,1.688-0.004,4.112-0.004,5.845C19.659,34.792,19.659,37.959,19.659,41.126z M21.387,42.079
		c0.084,0.05,0.167,0.099,0.258,0.151c0.568,0.325,1.58,0.588,2.26,0.588h0.642C23.367,42.987,21.968,42.747,21.387,42.079z
		 M21.108,25.526c0-1.465,3.909-1.456,4.994-0.186c-0.175-0.083-0.365-0.141-0.571-0.141c0,0-0.041,0-0.091,0
		c-0.052,0,0.05,0.068,0.227,0.149c0.108,0.048,0.215,0.097,0.32,0.15c0.114,0.066,0.226,0.134,0.338,0.202
		c0.039,0.109,0.06,0.224,0.06,0.346c0,0.172,0,0.344,0,0.517c-0.154-0.212-0.324-0.405-0.517-0.532
		c-0.077-0.052-0.155-0.102-0.232-0.153c-0.568-0.375-1.58-0.68-2.261-0.68h-1.414c-0.289,0-0.556,0.09-0.776,0.244
		c-0.035,0.025-0.056,0.055-0.079,0.085C21.108,25.529,21.108,25.527,21.108,25.526z M21.108,26.008
		c0.115,0.239,0.36,0.488,0.672,0.652c1.349,0.708,2.692,1.425,4.032,2.148c0.211,0.114,0.407,0.148,0.573,0.12
		c0,0.62,0,1.24,0,1.86c-0.161-0.176-0.338-0.342-0.541-0.465c-1.399-0.854-2.798-1.71-4.197-2.564
		c-0.202-0.123-0.379-0.176-0.54-0.197C21.108,27.044,21.108,26.526,21.108,26.008z M21.108,28.935
		c0.16,0.175,0.338,0.34,0.54,0.463c1.4,0.857,2.798,1.715,4.197,2.572c0.202,0.124,0.38,0.176,0.541,0.197c0,0.11,0,0.221,0,0.331
		c-0.122-0.073-0.245-0.145-0.365-0.219c-1.473-0.905-2.931-1.831-4.386-2.761c-0.197-0.125-0.37-0.184-0.526-0.211
		C21.108,29.183,21.108,29.06,21.108,28.935z M21.108,30.644c0.157,0.173,0.33,0.337,0.526,0.464
		c1.402,0.899,2.805,1.798,4.215,2.681c0.2,0.125,0.376,0.179,0.536,0.202c0,0.724,0,1.449,0,2.173
		c-0.157-0.18-0.33-0.348-0.526-0.475c-1.424-0.92-2.838-1.856-4.243-2.804c-0.189-0.128-0.356-0.166-0.508-0.165
		C21.108,32.028,21.108,31.336,21.108,30.644z M21.108,37.067c0-0.812,0-1.624,0-2.435c0.167,0.21,0.355,0.398,0.569,0.516
		c1.387,0.766,2.77,1.542,4.15,2.327c0.209,0.119,0.393,0.163,0.559,0.172c0,1.361,0,2.722,0,4.083
		c-0.032,0.114-0.091,0.217-0.164,0.314c-0.123-0.186-0.324-0.376-0.582-0.522c-1.324-0.747-2.647-1.492-3.969-2.239
		c-0.207-0.117-0.398-0.155-0.562-0.131C21.108,38.457,21.108,37.762,21.108,37.067z"/>
	<path style="fill:#010202;" d="M11.129,41.126c0,3.464,7.153,3.378,7.962,0.381c0.005-0.019-0.008-0.03-0.009-0.046
		c0.002-0.013,0.014-0.025,0.014-0.038c0-5.086,0-10.171,0-15.257c0-3.465-7.152-3.378-7.962-0.381
		c-0.457,1.688-0.005,4.107-0.005,5.84C11.129,34.792,11.129,37.959,11.129,41.126z M12.993,42.242
		c0.006,0.004,0.012,0.007,0.018,0.011c0.568,0.325,1.58,0.588,2.26,0.588h0.44C14.709,42.956,13.584,42.764,12.993,42.242z
		 M17.339,25.306c-0.139-0.049-0.286-0.083-0.442-0.083c0,0-0.041,0-0.091,0c-0.052,0,0.05,0.068,0.227,0.149
		c0.108,0.048,0.215,0.097,0.32,0.15c0.069,0.041,0.137,0.082,0.206,0.123c0.053,0.126,0.089,0.258,0.089,0.402
		c0,0.129,0,0.258,0,0.387c-0.126-0.15-0.265-0.282-0.412-0.379c-0.077-0.052-0.155-0.102-0.232-0.153
		c-0.568-0.375-1.58-0.68-2.261-0.68h-1.414c-0.273,0-0.523,0.086-0.735,0.224C12.731,24.057,16.273,24.1,17.339,25.306z
		 M12.579,26.202c0.133,0.182,0.331,0.356,0.568,0.48c1.349,0.709,2.692,1.425,4.032,2.148c0.169,0.091,0.327,0.129,0.469,0.128
		c0,0.578,0,1.156,0,1.733c-0.134-0.13-0.28-0.25-0.436-0.347c-1.399-0.854-2.798-1.71-4.197-2.564
		c-0.157-0.096-0.302-0.154-0.436-0.188C12.579,27.13,12.579,26.666,12.579,26.202z M12.579,29.077
		c0.133,0.129,0.279,0.249,0.436,0.345c1.4,0.857,2.798,1.715,4.197,2.572c0.157,0.096,0.303,0.155,0.436,0.188
		c0,0.092,0,0.185,0,0.277c-0.087-0.052-0.175-0.104-0.261-0.157c-1.473-0.905-2.931-1.831-4.386-2.761
		c-0.151-0.097-0.293-0.16-0.422-0.198C12.579,29.254,12.579,29.165,12.579,29.077z M12.579,30.788
		c0.129,0.128,0.271,0.246,0.422,0.343c1.402,0.899,2.805,1.798,4.215,2.681c0.155,0.097,0.299,0.157,0.432,0.192
		c0,0.686,0,1.372,0,2.058c-0.129-0.132-0.271-0.252-0.422-0.35c-1.424-0.919-2.838-1.856-4.243-2.804
		c-0.144-0.098-0.28-0.153-0.404-0.176C12.579,32.084,12.579,31.436,12.579,30.788z M12.579,37.067c0-0.759,0-1.519,0-2.278
		c0.142,0.153,0.297,0.289,0.465,0.382c1.387,0.766,2.77,1.542,4.15,2.327c0.164,0.093,0.315,0.144,0.454,0.17
		c0,1.357,0,2.714,0,4.071c-0.025,0.088-0.064,0.171-0.114,0.249c-0.125-0.16-0.308-0.317-0.528-0.442
		c-1.324-0.747-2.647-1.492-3.969-2.239c-0.165-0.093-0.319-0.134-0.458-0.137C12.579,38.469,12.579,37.768,12.579,37.067z"/>
	<path style="fill:#010202;" d="M2.373,41.126c0,3.514,7.367,3.434,8.191,0.387c0.006-0.023-0.007-0.037-0.009-0.056
		c0.002-0.012,0.012-0.022,0.012-0.035c0-5.086,0-10.171,0-15.257c0-3.514-7.366-3.434-8.191-0.387
		c-0.457,1.688-0.004,4.113-0.004,5.846C2.373,34.792,2.373,37.959,2.373,41.126z M4.189,42.165
		c0.064,0.037,0.122,0.073,0.189,0.111c0.561,0.321,1.554,0.581,2.235,0.586C5.661,42.878,4.696,42.649,4.189,42.165z M3.823,25.526
		c0-1.485,4.083-1.453,5.077-0.11c-0.19-0.103-0.404-0.17-0.636-0.17c0,0-0.041,0-0.091,0c-0.052,0,0.05,0.068,0.227,0.149
		c0.108,0.048,0.215,0.097,0.32,0.15c0.117,0.068,0.232,0.138,0.348,0.207c0.029,0.094,0.051,0.19,0.051,0.295
		c0,0.188,0,0.375,0,0.562c-0.154-0.212-0.324-0.405-0.517-0.532c-0.077-0.052-0.155-0.102-0.232-0.153
		c-0.568-0.375-1.58-0.68-2.261-0.68H4.696c-0.289,0-0.556,0.09-0.776,0.244c-0.043,0.03-0.073,0.066-0.097,0.104
		C3.823,25.572,3.823,25.549,3.823,25.526z M3.823,26.005c0.103,0.253,0.357,0.525,0.69,0.7c1.349,0.708,2.692,1.425,4.032,2.148
		c0.211,0.114,0.407,0.148,0.573,0.12c0,0.62,0,1.24,0,1.86c-0.161-0.176-0.338-0.342-0.541-0.465
		c-1.399-0.854-2.798-1.71-4.197-2.564c-0.21-0.128-0.394-0.181-0.558-0.198C3.823,27.073,3.823,26.539,3.823,26.005z M3.823,28.96
		c0.164,0.183,0.348,0.356,0.558,0.484c1.4,0.857,2.798,1.715,4.197,2.572c0.202,0.124,0.38,0.176,0.541,0.197
		c0,0.11,0,0.221,0,0.331c-0.122-0.073-0.245-0.145-0.365-0.219c-1.473-0.905-2.931-1.831-4.386-2.761
		c-0.205-0.131-0.384-0.188-0.545-0.213C3.823,29.22,3.823,29.09,3.823,28.96z M3.823,30.669c0.161,0.182,0.34,0.354,0.545,0.485
		c1.402,0.899,2.805,1.798,4.215,2.681c0.2,0.125,0.376,0.179,0.536,0.202c0,0.724,0,1.449,0,2.173
		c-0.157-0.18-0.33-0.348-0.526-0.475c-1.424-0.92-2.838-1.856-4.243-2.804c-0.198-0.133-0.371-0.17-0.527-0.163
		C3.823,32.068,3.823,31.369,3.823,30.669z M3.823,37.067c0-0.804,0-1.609,0-2.413c0.171,0.22,0.366,0.417,0.588,0.54
		c1.387,0.766,2.77,1.542,4.15,2.327c0.209,0.119,0.393,0.163,0.559,0.172c0,1.345,0,2.69,0,4.035
		c-0.034,0.122-0.101,0.232-0.183,0.335c-0.124-0.177-0.319-0.356-0.563-0.494c-1.324-0.747-2.647-1.492-3.969-2.239
		c-0.215-0.122-0.414-0.16-0.581-0.13C3.823,38.488,3.823,37.777,3.823,37.067z"/>
</g>
</svg>
